<svg xmlns="http://www.w3.org/2000/svg" version="1.1" id="Layer_1" x="0" y="0" viewBox="0 0 800 600" style="enable-background:new 0 0 800 600" xml:space="preserve"><style>.st178{fill:#5c637f}.st181{fill:#4a5168}</style><path d="m652.47 525-245.2-50.83c-4.44-.92-8.91-1.7-13.4-2.34l-264.88-37.72c-6.7-23.72-13.72-50.94-1.23-72.19l4.49-7.65 502.9 87.31L652.47 525z" style="fill:#fcdddb"/><path d="M152.49 317.86c13.67 2.37 20.91 26.46 16.16 53.81-4.75 27.34-19.68 47.58-33.35 45.21l507.09 88.04c26.84 4.66 35.44-44.85 35.44-44.85s8.6-49.51-18.25-54.17L422 375.06c-2.88-.37-5.75-.87-8.59-1.47l-260.92-55.73z" style="fill:#f9c6c2"/><path d="M168.65 371.67c4.75-27.34-1.33-51.23-13.57-53.36-12.24-2.13-26.01 18.32-30.76 45.66-4.75 27.34 1.33 51.23 13.57 53.36 12.24 2.12 26.01-18.32 30.76-45.66z" style="fill:#ffaca3"/><path d="m168.65 371.67-30.9-5.36c-4.43 25.51-.54 47.49 8.69 49.09 9.54-5.72 18.55-22.67 22.21-43.73z" style="fill:#f79c97"/><path d="M442.98 376.85c.13-.75-.41-1.45-1.17-1.51l-14.22-1.25a232.704 232.704 0 0 1-38.69-6.72l-13.81-3.62c-.74-.19-1.48.28-1.61 1.03a363.118 363.118 0 0 1-17.52 100.94c-.13.75.41 1.45 1.17 1.51l14.22 1.25c13.06 1.15 26.01 3.39 38.69 6.72l13.81 3.62c.74.19 1.48-.28 1.61-1.03a363.118 363.118 0 0 0 17.52-100.94z" style="fill:#fc6363"/><path d="M425.45 477.79c-.01.05-.03.1-.04.15l5.44 1.13c1.08-3.43 2.1-6.88 3.08-10.34l-5.41-.94c-.98 3.34-1.99 6.68-3.07 10z" style="fill:#f2cfce"/><path d="M442.94 377.78c-.33 10.05-1.09 20.07-2.25 30.04a362.976 362.976 0 0 1-12.17 59.96l5.41.94c5.59-19.66 9.63-39.71 12.07-59.98 1.21-10.04 2.03-20.13 2.45-30.25l-5.51-.71z" style="fill:#f4b8b5"/><path class="st178" d="M394.63 75 130.2 163.68c-.98.29-1.65 1.19-1.65 2.21v4.96c0 1.05.7 1.96 1.72 2.23l264.37 82.73 264.41-82.43c.99-.28 1.68-1.19 1.68-2.22v-5.27c0-1.02-.67-1.92-1.65-2.21L394.63 75z"/><path class="st178" d="m528.58 311.72-34.93-133.57-.04-.01c-64.62-19.79-133.35-19.84-198-.14l-34.94 133.72 6.09-.76c84.92-10.6 170.83-10.6 255.74 0l6.08.76z"/><path d="m498.82 197.94-5.17-19.78-.04-.01c-64.62-19.79-133.35-19.84-198-.14l-5.17 19.79c68.16-18.1 140.25-18.05 208.38.14z" style="fill:#4e556d"/><path class="st181" d="m588.7 128.92-.36-.08-36.15-1 25.03 8.39 10.15.28c8.18 1.99 13.86 9.2 13.86 17.65v88.17h7.7v-88.17c0-12.19-8.32-22.58-20.23-25.24z"/><path class="st178" d="m583.12 336.2 9.13-1.81c.47-.04.95-.06 1.42-.06l11.55-96.81c-12.2-.01-22.1 98.68-22.1 98.68z"/><path class="st181" d="m605.23 237.51-11.55 96.81c3.58-.03 18.64 1.03 21.57 3.04l12.09 8.3c-.01 0-9.91-108.15-22.11-108.15z"/></svg>