<?xml version="1.0" standalone="no"?>
<!DOCTYPE svg PUBLIC "-//W3C//DTD SVG 20010904//EN"
 "http://www.w3.org/TR/2001/REC-SVG-20010904/DTD/svg10.dtd">
<svg version="1.0" xmlns="http://www.w3.org/2000/svg"
 width="600.000000pt" height="600.000000pt" viewBox="0 0 600.000000 600.000000"
 preserveAspectRatio="xMidYMid meet">
<metadata>
Created by potrace 1.11, written by Peter Selinger 2001-2013
</metadata>
<g transform="translate(0.000000,600.000000) scale(0.100000,-0.100000)"
fill="#000000" stroke="none">
<path d="M2487 5814 c-119 -28 -265 -113 -329 -190 -41 -50 -94 -144 -81 -144
4 0 2 -5 -5 -12 -7 -7 -12 -18 -12 -24 0 -7 -4 -24 -10 -38 l-10 -26 -52 33
c-65 41 -123 68 -208 97 -76 26 -259 36 -355 19 -33 -5 -73 -13 -90 -15 -55
-10 -179 -63 -237 -101 -78 -52 -135 -107 -179 -176 -52 -80 -72 -147 -75
-245 -2 -109 -23 -137 -120 -171 -110 -38 -166 -65 -243 -116 -210 -138 -380
-392 -453 -675 -39 -152 -28 -389 23 -506 27 -59 92 -128 146 -154 53 -26 186
-36 242 -20 17 5 31 5 31 1 0 -4 -44 -53 -97 -110 -113 -119 -185 -224 -253
-366 -58 -121 -82 -212 -86 -325 -5 -147 29 -264 102 -358 64 -82 210 -169
315 -189 49 -9 347 -9 394 0 17 3 46 8 65 12 55 10 144 36 158 47 6 6 12 8 12
5 0 -5 116 39 240 93 77 33 101 33 106 -4 1 -11 16 -46 33 -80 61 -124 166
-198 285 -200 130 -2 211 29 351 134 59 44 96 57 190 65 39 3 80 7 90 9 11 2
40 7 65 11 65 11 210 60 265 90 26 15 49 25 51 22 4 -4 10 -49 19 -167 8 -87
7 -308 0 -395 -10 -108 -15 -146 -30 -236 -24 -133 -146 -401 -207 -455 -29
-26 -118 -63 -187 -78 -36 -8 -197 -40 -333 -67 -65 -13 -118 -27 -118 -32 0
-10 101 -4 370 19 143 12 200 14 200 6 0 -24 -64 -63 -185 -112 -75 -30 -129
-50 -137 -50 -6 0 -24 -6 -41 -14 -125 -57 -215 -60 -542 -21 -177 21 -271 28
-263 20 11 -11 168 -64 168 -57 0 3 5 1 12 -6 7 -7 20 -12 31 -12 11 0 17 -6
15 -14 -2 -8 -72 -84 -155 -170 -136 -140 -167 -176 -147 -176 3 0 47 33 97
74 245 196 312 226 505 226 65 0 121 -3 125 -6 3 -4 -4 -20 -16 -37 -39 -54
-156 -212 -168 -225 -6 -7 -8 -16 -5 -19 3 -4 48 36 100 88 158 159 214 201
315 240 55 21 182 54 249 65 l33 6 -6 -119 c-7 -108 -6 -116 9 -98 8 11 16 24
16 28 1 31 229 359 312 448 84 91 201 97 309 16 216 -161 227 -173 319 -362
47 -96 60 -95 39 2 -14 67 -15 71 -24 137 l-7 49 33 -20 c19 -12 79 -47 134
-78 215 -124 265 -161 433 -327 67 -67 122 -117 122 -110 0 10 -21 61 -71 168
-25 54 -29 90 -9 85 8 -2 49 -12 90 -23 41 -11 82 -22 90 -24 8 -2 94 -24 190
-50 96 -25 236 -61 310 -81 74 -19 142 -36 150 -39 54 -14 134 -33 169 -40 37
-8 11 19 -36 35 -59 21 -307 132 -320 143 -10 8 17 27 99 74 181 104 168 112
-37 25 -145 -62 -181 -69 -266 -46 -35 9 -73 18 -84 21 -40 7 -460 126 -465
131 -5 5 40 42 52 43 14 0 120 72 114 77 -3 3 -58 -12 -123 -33 -147 -47 -178
-47 -268 1 -38 21 -72 41 -75 45 -3 3 -16 14 -29 23 -81 55 -202 201 -287 347
-92 157 -128 253 -149 398 -13 89 -19 435 -10 567 8 127 15 208 19 214 2 3 7
23 10 45 9 54 13 58 50 42 119 -50 418 -67 571 -32 153 35 249 65 495 156 120
45 234 84 253 87 21 3 80 -6 158 -26 68 -17 156 -34 194 -38 82 -9 304 -9 355
0 88 16 133 28 149 41 8 6 15 10 15 8 5 -18 190 69 262 124 168 128 250 324
209 500 -6 28 -10 61 -8 73 1 11 4 29 6 39 1 9 5 22 9 27 3 6 18 62 33 125 25
101 28 135 29 275 0 171 -9 215 -70 336 -81 161 -231 300 -421 389 -35 17 -92
44 -128 61 -74 34 -92 56 -100 119 -9 81 -12 94 -33 153 -54 150 -195 289
-397 389 -63 32 -175 75 -215 83 -157 33 -294 80 -330 114 -163 155 -260 231
-384 303 -150 88 -283 129 -431 133 -159 5 -246 -27 -339 -123 -28 -29 -53
-58 -55 -63 -2 -6 -40 27 -85 73 -97 98 -102 102 -164 133 -102 51 -241 66
-355 39z"/>
</g>
</svg>
